<svg width="16" height="16" viewBox="0 0 16 16" xmlns="http://www.w3.org/2000/svg"><style>@import '../colors.css';</style>
<path d="M5 9.99982H1V7.99982H5V9.99982ZM10 9.74493L9.65527 9.99982H6V7.99982H10V9.74493ZM11 9.00861V7.99982H12.3701L11 9.00861ZM5 6.99982H1V3.99982H5V6.99982ZM10 6.99982H6V3.99982H10V6.99982ZM15 6.99982H11V3.99982H15V6.99982ZM5 2.99982H1V0.999817H5V2.99982ZM10 2.99982H6V0.999817H10V2.99982ZM15 2.99982H11V0.999817H15V2.99982Z"/>
<path d="M10.667 14.3378C10.6658 14.7627 10.5028 15.1874 10.1787 15.5117C9.85208 15.8383 9.42322 16.0012 8.99512 15.9999H6.66699C6.2988 15.9999 6 15.7011 6 15.333C6.00018 14.9649 6.29891 14.6669 6.66699 14.6669C7.20006 14.6668 7.35603 14.2221 7.36719 13.9999C7.43008 13.6904 7.5813 13.3953 7.82129 13.1552C8.14548 12.831 8.57021 12.6682 8.99512 12.6669L10.667 14.3378ZM13.8945 8.09761C14.2682 7.91932 14.7296 7.98539 15.0391 8.29487C15.3484 8.60443 15.4138 9.06575 15.2354 9.4394L12.4082 13.248C12.3473 13.3399 12.2762 13.4277 12.1953 13.5087C11.93 13.7741 11.5967 13.9302 11.252 13.9804L9.35254 12.081C9.40281 11.7364 9.55905 11.4038 9.82422 11.1386C9.90521 11.0577 9.99306 10.9867 10.085 10.9257L13.8945 8.09761Z"/>
</svg>
