<svg width="16" height="16" viewBox="0 0 16 16" xmlns="http://www.w3.org/2000/svg"><style>@import '../colors.css';</style>
<g clip-path="url(#clip0_1670_2)">
<path d="M16 7.90039C15.927 7.79013 15.8433 7.68414 15.7461 7.58691C15.1275 6.96845 14.207 6.83982 13.4629 7.19531L12.3701 8H11V9.00879L10 9.74512V8H6V10H9.65527L9.50781 10.1084C9.36949 10.2023 9.23862 10.3102 9.11719 10.4316C8.94414 10.6047 8.80048 10.7966 8.68457 11H0V0H16V7.90039ZM16 11H15.3057L16 10.0566V11ZM1 10H5V8H1V10ZM1 7H5V4H1V7ZM6 7H10V4H6V7ZM11 7H15V4H11V7ZM1 3H5V1H1V3ZM6 3H10V1H6V3ZM11 3H15V1H11V3Z"/>
<path d="M10.667 14.3378C10.6658 14.7627 10.5028 15.1875 10.1787 15.5117C9.85208 15.8383 9.42322 16.0012 8.99512 16H6.66699C6.2988 16 6 15.7012 6 15.333C6.00018 14.9649 6.29891 14.667 6.66699 14.667C7.20006 14.6668 7.35603 14.2221 7.36719 14C7.43008 13.6904 7.5813 13.3954 7.82129 13.1552C8.14548 12.831 8.57021 12.6682 8.99512 12.667L10.667 14.3378ZM13.8945 8.09761C14.2682 7.91931 14.7296 7.98539 15.0391 8.29488C15.3483 8.60444 15.4138 9.06577 15.2354 9.43941L12.4082 13.248C12.3473 13.3399 12.2763 13.4277 12.1953 13.5087C11.9302 13.7738 11.5974 13.9301 11.2529 13.9804L9.35254 12.08C9.40295 11.7357 9.5593 11.4036 9.82422 11.1386C9.9052 11.0577 9.99307 10.9867 10.085 10.9257L13.8945 8.09761Z"/>
</g>
<defs>
<clipPath id="clip0_1670_2">
<rect width="16" height="16" fill="white"/>
</clipPath>
</defs>
</svg>
